<svg width="392" height="280" viewBox="0 0 392 280" fill="none" xmlns="http://www.w3.org/2000/svg">
<g filter="url(#filter0_b_1953_46789)">
<path d="M112 71.5H78C73.86 71.5 70.5 68.14 70.5 64V30C70.5 29.18 71.18 28.5 72 28.5C72.82 28.5 73.5 29.18 73.5 30V64C73.5 66.48 75.52 68.5 78 68.5H112C112.82 68.5 113.5 69.18 113.5 70C113.5 70.82 112.82 71.5 112 71.5Z" fill="white"/>
<path d="M77.9996 61.5C77.6596 61.5 77.2996 61.38 77.0196 61.14C76.3996 60.6 76.3196 59.66 76.8596 59.02L86.0396 48.3C87.0396 47.14 88.4796 46.44 89.9996 46.38C91.5196 46.34 93.0196 46.9 94.0996 47.98L95.9996 49.88C96.4996 50.38 97.1396 50.62 97.8596 50.62C98.5596 50.6 99.1996 50.28 99.6596 49.74L108.84 39.02C109.38 38.4 110.32 38.32 110.96 38.86C111.58 39.4 111.66 40.34 111.12 40.98L101.94 51.7C100.94 52.86 99.4996 53.56 97.9796 53.62C96.4396 53.66 94.9596 53.1 93.8796 52.02L91.9996 50.12C91.4996 49.62 90.8396 49.36 90.1396 49.38C89.4396 49.4 88.7996 49.72 88.3396 50.26L79.1596 60.98C78.8396 61.32 78.4196 61.5 77.9996 61.5Z" fill="white"/>
<path d="M26.0557 86.9062H27.6816V95.124C27.6816 95.9268 27.8457 96.5039 28.1738 96.8555C28.5078 97.207 29.1348 97.3828 30.0547 97.3828V99C28.7539 99 27.7607 98.6807 27.0752 98.042C26.3955 97.3975 26.0557 96.4336 26.0557 95.1504V86.9062ZM30.0635 97.3828H30.5469C31.0156 97.3828 31.4111 97.3564 31.7334 97.3037C32.0557 97.2451 32.3721 97.166 32.6826 97.0664C32.4248 96.8672 32.1729 96.6387 31.9268 96.3809C31.6807 96.123 31.4785 95.8359 31.3203 95.5195C31.168 95.2031 31.0918 94.8574 31.0918 94.4824C31.0918 94.084 31.1621 93.6973 31.3027 93.3223C31.4492 92.9414 31.6572 92.6016 31.9268 92.3027C32.1963 91.998 32.5156 91.7607 32.8848 91.5908L31.5752 91.0283L32.208 89.5342L36.8926 91.5469C37.9238 91.9863 38.7646 92.4287 39.415 92.874C40.0713 93.3193 40.5518 93.7998 40.8564 94.3154C41.167 94.8252 41.3223 95.4141 41.3223 96.082C41.3223 96.6797 41.1846 97.207 40.9092 97.6641C40.6396 98.1152 40.2529 98.4668 39.749 98.7188C39.2451 98.9707 38.6387 99.0967 37.9297 99.0967C37.291 99.0967 36.6641 99.0117 36.0488 98.8418C35.4336 98.6719 34.8477 98.458 34.291 98.2002C33.7871 98.4463 33.2451 98.6426 32.665 98.7891C32.085 98.9297 31.4287 99 30.6963 99H30.0635C29.9697 99 29.9023 98.9414 29.8613 98.8242C29.8145 98.7012 29.791 98.4902 29.791 98.1914C29.791 97.8867 29.8145 97.6758 29.8613 97.5586C29.9023 97.4414 29.9697 97.3828 30.0635 97.3828ZM34.3174 96.6621C34.8623 96.3926 35.2754 96.0615 35.5566 95.6689C35.8438 95.2764 35.9873 94.8574 35.9873 94.4121C35.9873 93.8438 35.8584 93.3779 35.6006 93.0146C35.3486 92.6455 34.9531 92.4609 34.4141 92.4609C34.0625 92.4609 33.749 92.5576 33.4736 92.751C33.2041 92.9443 32.9902 93.1963 32.832 93.5068C32.6797 93.8174 32.6035 94.1514 32.6035 94.5088C32.6035 94.8369 32.6885 95.1357 32.8584 95.4053C33.0283 95.6748 33.2422 95.915 33.5 96.126C33.7637 96.3311 34.0361 96.5098 34.3174 96.6621ZM35.8027 97.0576C36.1543 97.1807 36.5176 97.2803 36.8926 97.3564C37.2734 97.4326 37.6279 97.4707 37.9561 97.4707C38.4834 97.4707 38.9141 97.3594 39.248 97.1367C39.582 96.9141 39.749 96.5361 39.749 96.0029C39.749 95.6572 39.6611 95.3379 39.4854 95.0449C39.3096 94.752 39.0254 94.4707 38.6328 94.2012C38.2402 93.9316 37.7158 93.6533 37.0596 93.3662C37.3408 94.1455 37.3525 94.8545 37.0947 95.4932C36.8428 96.1318 36.4121 96.6533 35.8027 97.0576ZM45.3037 99H43.6865V86.9062H45.3037V99ZM50.9902 86.6865L52.3086 85.3682L53.6182 86.6865L52.3086 87.9961L50.9902 86.6865ZM53.1172 90.0967L55.4902 95.6426C55.7832 96.3105 56.1172 96.7676 56.4922 97.0137C56.8672 97.2598 57.3623 97.3828 57.9775 97.3828H58.1182V99H57.96C57.2217 99 56.5684 98.8623 56 98.5869C55.4316 98.3115 54.9746 97.8457 54.6289 97.1895C54.2656 97.8223 53.7559 98.2969 53.0996 98.6133C52.4434 98.9297 51.7432 99.0879 50.999 99.0879C50.4072 99.0879 49.8125 98.9854 49.2148 98.7803C48.6172 98.5693 48.0693 98.25 47.5713 97.8223L48.3359 96.5303C48.7461 96.8525 49.1797 97.0898 49.6367 97.2422C50.0938 97.3887 50.542 97.4619 50.9814 97.4619C51.5674 97.4619 52.1123 97.3389 52.6162 97.0928C53.126 96.8467 53.5449 96.4775 53.873 95.9854L51.5967 90.8262L53.1172 90.0967ZM61.8535 87.1963L63.1719 85.8779L64.4814 87.1963L63.1719 88.5059L61.8535 87.1963ZM60.8164 94.7988C60.8164 95.2031 60.9131 95.5576 61.1064 95.8623C61.2998 96.1611 61.5518 96.3926 61.8623 96.5566C62.1787 96.7148 62.5186 96.7939 62.8818 96.7939C62.9932 96.7939 63.1514 96.7822 63.3564 96.7588C63.5674 96.7295 63.7783 96.6943 63.9893 96.6533L66.7666 96.126L67.0566 97.7168L62.4072 98.6045C61.7393 98.7275 61.0713 98.8242 60.4033 98.8945C59.7412 98.9648 59.1143 99 58.5225 99H58.1182C58.0186 99 57.9482 98.9355 57.9072 98.8066C57.8662 98.6719 57.8457 98.4668 57.8457 98.1914C57.8457 97.916 57.8662 97.7139 57.9072 97.585C57.9482 97.4502 58.0186 97.3828 58.1182 97.3828H58.4609C58.7832 97.3828 59.1084 97.3711 59.4365 97.3477C59.7646 97.3184 60.1338 97.2744 60.5439 97.2158C60.1572 96.9814 59.835 96.665 59.5771 96.2666C59.3252 95.8623 59.1992 95.3789 59.1992 94.8164C59.1992 93.9961 59.3809 93.2812 59.7441 92.6719C60.1133 92.0566 60.5996 91.5791 61.2031 91.2393C61.8125 90.8936 62.4688 90.7207 63.1719 90.7207C63.8457 90.7207 64.4229 90.8408 64.9033 91.0811C65.3896 91.3154 65.8555 91.667 66.3008 92.1357L65.3955 93.2959C65.0908 92.9912 64.7568 92.7568 64.3936 92.5928C64.0361 92.4229 63.6406 92.3379 63.207 92.3379C62.7969 92.3379 62.4072 92.4346 62.0381 92.6279C61.6748 92.8154 61.3789 93.0938 61.1504 93.4629C60.9277 93.832 60.8164 94.2773 60.8164 94.7988ZM83.5977 92.3379L83.1143 93.7969C82.8682 93.7148 82.5957 93.6504 82.2969 93.6035C82.0039 93.5508 81.7227 93.5244 81.4531 93.5244C80.8906 93.5244 80.3838 93.6328 79.9326 93.8496C79.4873 94.0605 79.1357 94.3594 78.8779 94.7461C78.6201 95.127 78.4912 95.5723 78.4912 96.082C78.4912 96.5742 78.6699 96.917 79.0273 97.1104C79.3848 97.2979 80.0146 97.4297 80.917 97.5059C81.4092 97.541 81.8457 97.5996 82.2266 97.6816C82.6074 97.7637 82.9297 97.8896 83.1934 98.0596C83.4629 98.2236 83.665 98.4463 83.7998 98.7275C83.9404 99.0088 84.0107 99.3691 84.0107 99.8086C84.0107 100.488 83.8555 101.08 83.5449 101.584C83.2344 102.094 82.8008 102.516 82.2441 102.85C81.6875 103.184 81.0371 103.433 80.293 103.597C79.5488 103.761 78.7432 103.843 77.876 103.843C76.0186 103.843 74.6357 103.436 73.7275 102.621C72.8252 101.812 72.374 100.526 72.374 98.7627C72.374 98.2354 72.4033 97.6992 72.4619 97.1543C72.5264 96.6035 72.6201 96.0264 72.7432 95.4229L74.2637 95.7129C74.1582 96.2988 74.0732 96.8438 74.0088 97.3477C73.9502 97.8457 73.9209 98.3408 73.9209 98.833C73.9209 99.6709 74.0586 100.339 74.334 100.837C74.6094 101.335 75.0371 101.692 75.6172 101.909C76.2031 102.126 76.959 102.234 77.8848 102.234C78.4766 102.234 79.0449 102.188 79.5898 102.094C80.1406 102 80.6299 101.862 81.0576 101.681C81.4912 101.499 81.834 101.276 82.0859 101.013C82.3379 100.755 82.4639 100.459 82.4639 100.125C82.4639 99.7852 82.332 99.542 82.0684 99.3955C81.8105 99.2549 81.3184 99.1523 80.5918 99.0879C79.7422 99.0176 79.0449 98.8887 78.5 98.7012C77.9609 98.5078 77.5625 98.2207 77.3047 97.8398C77.0527 97.4531 76.9268 96.9404 76.9268 96.3018C76.9268 95.4756 77.1113 94.7314 77.4805 94.0693C77.8496 93.4072 78.3652 92.8857 79.0273 92.5049C79.6953 92.1182 80.4688 91.9248 81.3477 91.9248C81.7227 91.9248 82.1064 91.9629 82.499 92.0391C82.8916 92.1094 83.2578 92.209 83.5977 92.3379ZM86.4541 87.293L87.957 86.7129C88.3438 87.6211 88.6748 88.5469 88.9502 89.4902C89.2256 90.4277 89.4424 91.3828 89.6006 92.3555C89.7588 93.3223 89.8555 94.3066 89.8906 95.3086L88.3174 95.4844C88.2822 94.541 88.1885 93.6064 88.0361 92.6807C87.8838 91.7549 87.6729 90.8438 87.4033 89.9473C87.1396 89.0449 86.8232 88.1602 86.4541 87.293ZM93.7754 86.9062H95.4014V92.2588C95.4014 93.624 95.2637 94.7461 94.9883 95.625C94.7188 96.498 94.2852 97.1807 93.6875 97.6729C93.0898 98.165 92.3018 98.5107 91.3232 98.71C90.3506 98.9033 89.1611 99 87.7549 99H86.0586V97.3828H87.834C88.9238 97.3828 89.8467 97.333 90.6025 97.2334C91.3643 97.1279 91.9766 96.9141 92.4395 96.5918C92.9082 96.2637 93.248 95.7744 93.459 95.124C93.6699 94.4736 93.7754 93.6006 93.7754 92.5049V86.9062ZM98.1436 86.9062H99.7695V95.124C99.7695 95.9268 99.9336 96.5039 100.262 96.8555C100.596 97.207 101.223 97.3828 102.143 97.3828V99C100.842 99 99.8486 98.6807 99.1631 98.042C98.4834 97.3975 98.1436 96.4336 98.1436 95.1504V86.9062ZM105.931 91.8721C106.089 92.5225 106.218 93.1406 106.317 93.7266C106.417 94.3125 106.467 94.8574 106.467 95.3613C106.467 96.0996 106.335 96.7412 106.071 97.2861C105.813 97.8311 105.4 98.2529 104.832 98.5518C104.264 98.8506 103.517 99 102.591 99H102.151C102.052 99 101.981 98.9414 101.94 98.8242C101.899 98.707 101.879 98.4961 101.879 98.1914C101.879 97.8809 101.899 97.6699 101.94 97.5586C101.981 97.4414 102.052 97.3828 102.151 97.3828H102.591C103.423 97.3828 104.015 97.2012 104.366 96.8379C104.718 96.4688 104.894 95.9414 104.894 95.2559C104.894 94.8633 104.847 94.4209 104.753 93.9287C104.665 93.4307 104.551 92.8828 104.41 92.2852L105.931 91.8721ZM102.099 102.138L103.417 100.819L104.727 102.138L103.417 103.447L102.099 102.138ZM125.935 93.2168C125.864 93.6152 125.803 93.9902 125.75 94.3418C125.703 94.6875 125.68 95.0332 125.68 95.3789C125.68 95.7598 125.738 96.1025 125.855 96.4072C125.979 96.7061 126.204 96.9434 126.532 97.1191C126.866 97.2949 127.35 97.3828 127.982 97.3828H127.991V99H127.982C126.975 99 126.178 98.8037 125.592 98.4111C125.012 98.0127 124.607 97.4268 124.379 96.6533C123.764 97.5205 122.888 98.1299 121.751 98.4814C120.62 98.8271 119.284 99 117.743 99C116.296 99 115.127 98.8271 114.236 98.4814C113.352 98.1357 112.707 97.6436 112.303 97.0049C111.898 96.3604 111.696 95.5928 111.696 94.7021C111.696 94.2627 111.74 93.7969 111.828 93.3047C111.922 92.8125 112.051 92.3145 112.215 91.8105L113.656 92.2324C113.516 92.666 113.407 93.0791 113.331 93.4717C113.255 93.8584 113.217 94.2188 113.217 94.5527C113.217 95.1973 113.375 95.7305 113.691 96.1523C114.014 96.5684 114.526 96.8789 115.229 97.084C115.933 97.2832 116.855 97.3828 117.998 97.3828C119.129 97.3828 120.078 97.2979 120.846 97.1279C121.619 96.9521 122.249 96.6855 122.735 96.3281C123.222 95.9648 123.597 95.5078 123.86 94.957C124.13 94.4004 124.326 93.7412 124.449 92.9795L125.935 93.2168ZM119.035 91.8809L120.354 90.5625L121.663 91.8809L120.354 93.1904L119.035 91.8809ZM115.968 91.8809L117.286 90.5625L118.596 91.8809L117.286 93.1904L115.968 91.8809ZM132.5 94.7285C132.5 95.3203 132.556 95.8154 132.667 96.2139C132.778 96.6064 132.995 96.8994 133.317 97.0928C133.646 97.2861 134.129 97.3828 134.768 97.3828H135.374V99H134.741C133.997 99 133.344 98.8359 132.781 98.5078C132.219 98.1797 131.853 97.7139 131.683 97.1104C131.565 97.5146 131.346 97.8574 131.023 98.1387C130.701 98.4199 130.314 98.6338 129.863 98.7803C129.412 98.9268 128.932 99 128.422 99H127.991C127.892 99 127.821 98.9414 127.78 98.8242C127.739 98.707 127.719 98.4961 127.719 98.1914C127.719 97.8809 127.739 97.6699 127.78 97.5586C127.821 97.4414 127.892 97.3828 127.991 97.3828H128.422C129.113 97.3828 129.635 97.2861 129.986 97.0928C130.338 96.8936 130.575 96.5977 130.698 96.2051C130.821 95.8125 130.883 95.3203 130.883 94.7285V93.4189H132.5V94.7285ZM129.09 102.138L130.408 100.819L131.718 102.138L130.408 103.447L129.09 102.138ZM126.022 102.138L127.341 100.819L128.65 102.138L127.341 103.447L126.022 102.138ZM138.441 87.1875L139.76 85.8691L141.069 87.1875L139.76 88.4971L138.441 87.1875ZM136.446 94.166C136.446 93.4688 136.59 92.8652 136.877 92.3555C137.17 91.8457 137.565 91.4502 138.063 91.1689C138.567 90.8877 139.136 90.7471 139.769 90.7471C140.39 90.7471 140.949 90.8877 141.447 91.1689C141.945 91.4443 142.341 91.8369 142.634 92.3467C142.933 92.8564 143.082 93.457 143.082 94.1484C143.082 94.8457 142.912 95.4404 142.572 95.9326C142.238 96.4248 141.825 96.8262 141.333 97.1367C141.608 97.2188 141.898 97.2803 142.203 97.3213C142.514 97.3623 142.833 97.3828 143.161 97.3828H144.154V99H142.95C142.364 99 141.805 98.9443 141.271 98.833C140.744 98.7217 140.231 98.5547 139.733 98.332C139.235 98.5547 138.72 98.7217 138.187 98.833C137.659 98.9443 137.094 99 136.49 99H135.374C135.274 99 135.204 98.9414 135.163 98.8242C135.122 98.707 135.102 98.4961 135.102 98.1914C135.102 97.8809 135.122 97.6699 135.163 97.5586C135.204 97.4414 135.274 97.3828 135.374 97.3828H136.332C136.666 97.3828 136.985 97.3623 137.29 97.3213C137.601 97.2803 137.905 97.2188 138.204 97.1367C137.706 96.832 137.287 96.4365 136.947 95.9502C136.613 95.4639 136.446 94.8691 136.446 94.166ZM139.76 96.7061C140.275 96.4541 140.686 96.126 140.99 95.7217C141.301 95.3115 141.456 94.8105 141.456 94.2188C141.456 93.668 141.304 93.2168 140.999 92.8652C140.694 92.5078 140.284 92.3291 139.769 92.3291C139.241 92.3291 138.825 92.5078 138.521 92.8652C138.216 93.2168 138.063 93.668 138.063 94.2188C138.063 94.8047 138.219 95.3027 138.529 95.7129C138.846 96.123 139.256 96.4541 139.76 96.7061ZM148.672 94.7285C148.672 95.3203 148.728 95.8154 148.839 96.2139C148.95 96.6064 149.167 96.8994 149.489 97.0928C149.817 97.2861 150.301 97.3828 150.939 97.3828H151.546V99H150.913C150.169 99 149.516 98.8359 148.953 98.5078C148.391 98.1797 148.024 97.7139 147.854 97.1104C147.737 97.5146 147.518 97.8574 147.195 98.1387C146.873 98.4199 146.486 98.6338 146.035 98.7803C145.584 98.9268 145.104 99 144.594 99H144.163C144.063 99 143.993 98.9414 143.952 98.8242C143.911 98.707 143.891 98.4961 143.891 98.1914C143.891 97.8809 143.911 97.6699 143.952 97.5586C143.993 97.4414 144.063 97.3828 144.163 97.3828H144.594C145.285 97.3828 145.807 97.2861 146.158 97.0928C146.51 96.8936 146.747 96.5977 146.87 96.2051C146.993 95.8125 147.055 95.3203 147.055 94.7285V93.4189H148.672V94.7285ZM145.262 102.138L146.58 100.819L147.89 102.138L146.58 103.447L145.262 102.138ZM142.194 102.138L143.513 100.819L144.822 102.138L143.513 103.447L142.194 102.138ZM159.368 85.9834L159.729 87.5566C158.557 87.9141 157.481 88.2861 156.503 88.6729C155.53 89.0537 154.593 89.4785 153.69 89.9473V90.0352C155.091 91.0898 156.128 92.0713 156.802 92.9795C157.476 93.8818 157.812 94.7783 157.812 95.6689C157.812 96.3721 157.61 96.9727 157.206 97.4707C156.808 97.9688 156.222 98.3496 155.448 98.6133C154.681 98.8711 153.746 99 152.645 99H151.546C151.452 99 151.385 98.9355 151.344 98.8066C151.297 98.6777 151.273 98.4697 151.273 98.1826C151.273 97.8955 151.297 97.6904 151.344 97.5674C151.385 97.4443 151.452 97.3828 151.546 97.3828H152.609C153.793 97.3828 154.687 97.2305 155.29 96.9258C155.894 96.6211 156.195 96.167 156.195 95.5635C156.195 94.9131 155.841 94.1865 155.132 93.3838C154.423 92.5811 153.345 91.6729 151.897 90.6592V89.165C154.288 87.7705 156.778 86.71 159.368 85.9834Z" fill="white"/>
</g>
<path d="M300 45.5C293.66 45.5 288.5 40.34 288.5 34C288.5 27.66 293.66 22.5 300 22.5C306.34 22.5 311.5 27.66 311.5 34C311.5 40.34 306.34 45.5 300 45.5ZM300 25.5C295.32 25.5 291.5 29.32 291.5 34C291.5 38.68 295.32 42.5 300 42.5C304.68 42.5 308.5 38.68 308.5 34C308.5 29.32 304.68 25.5 300 25.5Z" fill="white"/>
<path d="M317.18 65.5C316.36 65.5 315.68 64.82 315.68 64C315.68 57.1 308.64 51.5 300 51.5C291.36 51.5 284.32 57.1 284.32 64C284.32 64.82 283.64 65.5 282.82 65.5C282 65.5 281.32 64.82 281.32 64C281.32 55.46 289.7 48.5 300 48.5C310.3 48.5 318.68 55.46 318.68 64C318.68 64.82 318 65.5 317.18 65.5Z" fill="white"/>
<path d="M225.038 98.3379L224.555 99.7969C224.309 99.7148 224.036 99.6504 223.737 99.6035C223.444 99.5508 223.163 99.5244 222.894 99.5244C222.331 99.5244 221.824 99.6328 221.373 99.8496C220.928 100.061 220.576 100.359 220.318 100.746C220.061 101.127 219.932 101.572 219.932 102.082C219.932 102.574 220.11 102.917 220.468 103.11C220.825 103.298 221.455 103.43 222.357 103.506C222.85 103.541 223.286 103.6 223.667 103.682C224.048 103.764 224.37 103.89 224.634 104.06C224.903 104.224 225.105 104.446 225.24 104.728C225.381 105.009 225.451 105.369 225.451 105.809C225.451 106.488 225.296 107.08 224.985 107.584C224.675 108.094 224.241 108.516 223.685 108.85C223.128 109.184 222.478 109.433 221.733 109.597C220.989 109.761 220.184 109.843 219.316 109.843C217.459 109.843 216.076 109.436 215.168 108.621C214.266 107.812 213.814 106.526 213.814 104.763C213.814 104.235 213.844 103.699 213.902 103.154C213.967 102.604 214.061 102.026 214.184 101.423L215.704 101.713C215.599 102.299 215.514 102.844 215.449 103.348C215.391 103.846 215.361 104.341 215.361 104.833C215.361 105.671 215.499 106.339 215.774 106.837C216.05 107.335 216.478 107.692 217.058 107.909C217.644 108.126 218.399 108.234 219.325 108.234C219.917 108.234 220.485 108.188 221.03 108.094C221.581 108 222.07 107.862 222.498 107.681C222.932 107.499 223.274 107.276 223.526 107.013C223.778 106.755 223.904 106.459 223.904 106.125C223.904 105.785 223.772 105.542 223.509 105.396C223.251 105.255 222.759 105.152 222.032 105.088C221.183 105.018 220.485 104.889 219.94 104.701C219.401 104.508 219.003 104.221 218.745 103.84C218.493 103.453 218.367 102.94 218.367 102.302C218.367 101.476 218.552 100.731 218.921 100.069C219.29 99.4072 219.806 98.8857 220.468 98.5049C221.136 98.1182 221.909 97.9248 222.788 97.9248C223.163 97.9248 223.547 97.9629 223.939 98.0391C224.332 98.1094 224.698 98.209 225.038 98.3379ZM229.424 105H227.807V92.9062H229.424V105ZM237.026 97.3447L236.93 95.8682L238.547 95.7715L238.863 101.265C238.91 102.021 239.112 102.562 239.47 102.891C239.833 103.219 240.463 103.383 241.359 103.383H241.368V105H241.359C240.41 105 239.654 104.877 239.092 104.631C238.535 104.385 238.11 104.019 237.817 103.532C237.501 103.644 237.173 103.726 236.833 103.778C236.499 103.831 236.168 103.857 235.84 103.857C235.184 103.857 234.592 103.764 234.064 103.576C233.537 103.389 233.118 103.107 232.808 102.732C232.503 102.352 232.351 101.877 232.351 101.309C232.351 100.594 232.55 99.9668 232.948 99.4277C233.353 98.8887 233.906 98.4434 234.609 98.0918C235.318 97.7402 236.124 97.4912 237.026 97.3447ZM237.123 98.8477C236.385 98.9238 235.775 99.0762 235.295 99.3047C234.814 99.5273 234.457 99.7939 234.223 100.104C233.994 100.415 233.88 100.74 233.88 101.08C233.88 101.467 234.056 101.777 234.407 102.012C234.759 102.24 235.274 102.354 235.954 102.354C236.188 102.354 236.438 102.34 236.701 102.311C236.965 102.275 237.202 102.229 237.413 102.17C237.378 102.047 237.349 101.924 237.325 101.801C237.308 101.672 237.293 101.522 237.281 101.353L237.123 98.8477ZM244.075 91.2275L245.394 89.9092L246.703 91.2275L245.394 92.5371L244.075 91.2275ZM247.31 99.665C247.28 99.2432 247.225 98.8213 247.143 98.3994C247.066 97.9775 246.952 97.5908 246.8 97.2393C246.653 96.8877 246.463 96.6064 246.229 96.3955C245.994 96.1846 245.71 96.0791 245.376 96.0791C244.995 96.0791 244.682 96.2051 244.436 96.457C244.189 96.7031 244.008 97.0195 243.891 97.4062C243.773 97.793 243.715 98.1914 243.715 98.6016C243.715 99.0938 243.861 99.4336 244.154 99.6211C244.453 99.8086 244.881 99.9023 245.438 99.9023C245.795 99.9023 246.132 99.8789 246.448 99.832C246.771 99.7793 247.058 99.7236 247.31 99.665ZM241.377 103.383H242.722C243.683 103.383 244.474 103.354 245.095 103.295C245.722 103.236 246.208 103.128 246.554 102.97C246.905 102.806 247.151 102.571 247.292 102.267C247.433 101.956 247.503 101.552 247.503 101.054C247.175 101.142 246.826 101.212 246.457 101.265C246.088 101.317 245.695 101.344 245.279 101.344C244.377 101.344 243.653 101.153 243.108 100.772C242.569 100.386 242.3 99.7178 242.3 98.7686C242.3 98.2822 242.358 97.7871 242.476 97.2832C242.593 96.7793 242.774 96.3164 243.021 95.8945C243.272 95.4727 243.595 95.1328 243.987 94.875C244.38 94.6172 244.852 94.4883 245.402 94.4883C245.912 94.4883 246.354 94.5967 246.729 94.8135C247.104 95.0244 247.421 95.3086 247.679 95.666C247.942 96.0176 248.159 96.416 248.329 96.8613C248.499 97.3066 248.628 97.7666 248.716 98.2412C248.81 98.7158 248.874 99.1729 248.909 99.6123C248.95 100.052 248.971 100.447 248.971 100.799C248.971 101.549 248.874 102.19 248.681 102.724C248.487 103.257 248.156 103.693 247.688 104.033C247.219 104.367 246.574 104.613 245.754 104.771C244.934 104.924 243.896 105 242.643 105H241.377C241.277 105 241.207 104.941 241.166 104.824C241.125 104.707 241.104 104.496 241.104 104.191C241.104 103.881 241.128 103.67 241.175 103.559C241.216 103.441 241.283 103.383 241.377 103.383ZM252.302 99.7002L253.849 99.1904L254.35 100.957C254.525 101.596 254.722 102.091 254.938 102.442C255.155 102.794 255.437 103.04 255.782 103.181C256.128 103.315 256.582 103.383 257.145 103.383H257.153V105H257.145C256.582 105 256.081 104.909 255.642 104.728C255.208 104.546 254.874 104.288 254.64 103.954C254.657 104.956 254.484 105.829 254.121 106.573C253.764 107.323 253.195 107.985 252.416 108.56C251.643 109.134 250.638 109.655 249.401 110.124L248.716 108.656C249.782 108.258 250.641 107.839 251.291 107.399C251.941 106.966 252.413 106.474 252.706 105.923C252.999 105.372 253.146 104.728 253.146 103.989C253.146 103.456 253.075 102.838 252.935 102.135C252.794 101.426 252.583 100.614 252.302 99.7002ZM261.293 97.4766C261.703 97.4766 262.131 97.5615 262.576 97.7314C263.027 97.9014 263.514 98.1064 264.035 98.3467C264.574 98.5869 265.157 98.833 265.784 99.085C266.411 99.3311 267.105 99.5273 267.867 99.6738V101.089L264.237 103.515C263.464 104.024 262.661 104.399 261.829 104.64C261.003 104.88 260.104 105 259.131 105H257.162C257.062 105 256.992 104.941 256.951 104.824C256.91 104.701 256.89 104.49 256.89 104.191C256.89 103.887 256.91 103.676 256.951 103.559C256.992 103.441 257.062 103.383 257.162 103.383H259.386C259.913 103.383 260.408 103.345 260.871 103.269C261.334 103.187 261.779 103.063 262.207 102.899C262.641 102.729 263.071 102.51 263.499 102.24L265.986 100.641C265.418 100.529 264.905 100.383 264.448 100.201C263.997 100.02 263.581 99.8438 263.2 99.6738C262.843 99.5098 262.515 99.3721 262.216 99.2607C261.923 99.1436 261.636 99.085 261.354 99.085C260.886 99.085 260.522 99.2432 260.265 99.5596C260.013 99.876 259.828 100.301 259.711 100.834L259.658 101.115L258.34 100.869L258.401 100.535C258.577 99.6211 258.888 98.8828 259.333 98.3203C259.778 97.7578 260.432 97.4766 261.293 97.4766ZM278.309 104.859C278.033 104.912 277.74 104.959 277.43 105C277.119 105.047 276.788 105.07 276.437 105.07C275.517 105.07 274.787 104.842 274.248 104.385C273.709 103.928 273.439 103.222 273.439 102.267C273.439 101.774 273.501 101.279 273.624 100.781C273.753 100.283 273.946 99.8291 274.204 99.4189C274.462 99.0088 274.787 98.6807 275.18 98.4346C275.572 98.1826 276.035 98.0566 276.568 98.0566C277.248 98.0566 277.811 98.2383 278.256 98.6016C278.701 98.9648 279.053 99.4453 279.311 100.043C279.568 100.641 279.75 101.306 279.855 102.038C279.961 102.765 280.014 103.491 280.014 104.218C280.014 105.659 279.475 106.854 278.396 107.804C277.318 108.753 275.771 109.515 273.756 110.089L273.105 108.604C274.658 108.188 275.88 107.666 276.771 107.039C277.661 106.412 278.174 105.686 278.309 104.859ZM278.484 103.216C278.455 102.788 278.399 102.363 278.317 101.941C278.235 101.52 278.118 101.133 277.966 100.781C277.819 100.43 277.629 100.148 277.395 99.9375C277.166 99.7266 276.882 99.6211 276.542 99.6211C276.161 99.6211 275.848 99.7471 275.602 99.999C275.361 100.245 275.183 100.562 275.065 100.948C274.948 101.335 274.89 101.733 274.89 102.144C274.89 102.636 275.036 102.976 275.329 103.163C275.628 103.351 276.056 103.444 276.612 103.444C276.97 103.444 277.307 103.421 277.623 103.374C277.945 103.327 278.232 103.274 278.484 103.216ZM290.868 108.138L292.187 106.819L293.496 108.138L292.187 109.447L290.868 108.138ZM298.699 98.0479C298.846 98.5518 298.957 99.0352 299.033 99.498C299.109 99.9609 299.147 100.403 299.147 100.825C299.147 101.856 298.916 102.677 298.453 103.286C297.99 103.896 297.249 104.335 296.229 104.604C295.21 104.868 293.865 105 292.195 105C290.525 105 289.181 104.868 288.161 104.604C287.147 104.335 286.409 103.896 285.946 103.286C285.483 102.677 285.252 101.856 285.252 100.825C285.252 100.403 285.29 99.9609 285.366 99.498C285.448 99.0352 285.557 98.5518 285.691 98.0479L287.159 98.3906C287.048 98.8301 286.96 99.2402 286.896 99.6211C286.837 100.002 286.808 100.359 286.808 100.693C286.808 101.379 286.969 101.918 287.291 102.311C287.619 102.703 288.176 102.981 288.961 103.146C289.746 103.304 290.824 103.383 292.195 103.383C293.566 103.383 294.645 103.304 295.43 103.146C296.215 102.981 296.771 102.703 297.1 102.311C297.428 101.918 297.592 101.379 297.592 100.693C297.592 100.359 297.562 100.002 297.504 99.6211C297.445 99.2402 297.357 98.8301 297.24 98.3906L298.699 98.0479ZM302.487 99.7002L304.034 99.1904L304.535 100.957C304.711 101.596 304.907 102.091 305.124 102.442C305.341 102.794 305.622 103.04 305.968 103.181C306.313 103.315 306.768 103.383 307.33 103.383H307.339V105H307.33C306.768 105 306.267 104.909 305.827 104.728C305.394 104.546 305.06 104.288 304.825 103.954C304.843 104.956 304.67 105.829 304.307 106.573C303.949 107.323 303.381 107.985 302.602 108.56C301.828 109.134 300.823 109.655 299.587 110.124L298.901 108.656C299.968 108.258 300.826 107.839 301.477 107.399C302.127 106.966 302.599 106.474 302.892 105.923C303.185 105.372 303.331 104.728 303.331 103.989C303.331 103.456 303.261 102.838 303.12 102.135C302.979 101.426 302.769 100.614 302.487 99.7002ZM311.065 108.138L312.384 106.819L313.693 108.138L312.384 109.447L311.065 108.138ZM311.479 97.4766C311.889 97.4766 312.316 97.5615 312.762 97.7314C313.213 97.9014 313.699 98.1064 314.221 98.3467C314.76 98.5869 315.343 98.833 315.97 99.085C316.597 99.3311 317.291 99.5273 318.053 99.6738V101.089L316.374 102.205C316.696 102.65 317.033 102.958 317.385 103.128C317.736 103.298 318.217 103.383 318.826 103.383H319.336V105H318.791C318.006 105 317.326 104.845 316.752 104.534C316.178 104.224 315.688 103.688 315.284 102.926L314.423 103.515C313.649 104.024 312.847 104.399 312.015 104.64C311.188 104.88 310.289 105 309.316 105H307.348C307.248 105 307.178 104.941 307.137 104.824C307.096 104.701 307.075 104.49 307.075 104.191C307.075 103.887 307.096 103.676 307.137 103.559C307.178 103.441 307.248 103.383 307.348 103.383H309.571C310.099 103.383 310.594 103.345 311.057 103.269C311.52 103.187 311.965 103.063 312.393 102.899C312.826 102.729 313.257 102.51 313.685 102.24L316.172 100.641C315.604 100.529 315.091 100.383 314.634 100.201C314.183 100.02 313.767 99.8438 313.386 99.6738C313.028 99.5098 312.7 99.3721 312.401 99.2607C312.108 99.1436 311.821 99.085 311.54 99.085C311.071 99.085 310.708 99.2432 310.45 99.5596C310.198 99.876 310.014 100.301 309.896 100.834L309.844 101.115L308.525 100.869L308.587 100.535C308.763 99.6211 309.073 98.8828 309.519 98.3203C309.964 97.7578 310.617 97.4766 311.479 97.4766ZM319.336 103.383C319.846 103.383 320.265 103.26 320.593 103.014C320.927 102.768 321.211 102.451 321.445 102.064C321.68 101.672 321.902 101.262 322.113 100.834C322.342 100.359 322.585 99.9141 322.843 99.498C323.106 99.0762 323.426 98.7334 323.801 98.4697C324.176 98.2002 324.653 98.0654 325.233 98.0654C325.866 98.0654 326.42 98.2559 326.895 98.6367C327.369 99.0117 327.738 99.4951 328.002 100.087C328.266 100.673 328.397 101.285 328.397 101.924C328.397 102.879 328.128 103.646 327.589 104.227C327.056 104.801 326.326 105.088 325.4 105.088C324.773 105.088 324.182 104.944 323.625 104.657C323.074 104.364 322.594 103.969 322.184 103.471C321.867 103.916 321.483 104.282 321.032 104.569C320.587 104.856 320.021 105 319.336 105C319.236 105 319.166 104.941 319.125 104.824C319.084 104.707 319.063 104.496 319.063 104.191C319.063 103.881 319.084 103.67 319.125 103.559C319.166 103.441 319.236 103.383 319.336 103.383ZM323.001 102.205C323.37 102.621 323.754 102.938 324.152 103.154C324.551 103.371 324.97 103.479 325.409 103.479C325.843 103.479 326.206 103.342 326.499 103.066C326.792 102.791 326.938 102.41 326.938 101.924C326.938 101.549 326.859 101.191 326.701 100.852C326.549 100.506 326.341 100.222 326.077 99.999C325.819 99.7764 325.529 99.665 325.207 99.665C324.908 99.665 324.645 99.7441 324.416 99.9023C324.193 100.055 323.991 100.277 323.81 100.57C323.628 100.857 323.449 101.206 323.273 101.616L323.001 102.205ZM345.712 103.383V105H343.488C343.963 105.188 344.344 105.445 344.631 105.773C344.924 106.107 345.07 106.509 345.07 106.978C345.07 107.517 344.918 107.988 344.613 108.393C344.314 108.803 343.907 109.14 343.392 109.403C342.876 109.673 342.29 109.875 341.634 110.01C340.983 110.15 340.31 110.221 339.612 110.221C337.808 110.221 336.404 109.813 335.402 108.999C334.406 108.19 333.908 106.957 333.908 105.299C333.908 104.391 333.973 103.562 334.102 102.812C334.23 102.056 334.397 101.291 334.603 100.518L336.105 100.922C335.918 101.672 335.766 102.378 335.648 103.04C335.537 103.702 335.481 104.411 335.481 105.167C335.481 106.397 335.833 107.276 336.536 107.804C337.245 108.337 338.285 108.604 339.656 108.604C340.131 108.604 340.6 108.568 341.062 108.498C341.531 108.428 341.956 108.316 342.337 108.164C342.724 108.018 343.031 107.821 343.26 107.575C343.488 107.329 343.603 107.027 343.603 106.67C343.603 106.301 343.45 106.017 343.146 105.817C342.841 105.618 342.381 105.46 341.766 105.343C341.156 105.231 340.389 105.117 339.463 105L339.691 103.383H345.712ZM349.632 100.843C349.632 101.376 349.685 101.833 349.79 102.214C349.901 102.589 350.121 102.879 350.449 103.084C350.777 103.283 351.27 103.383 351.926 103.383H351.935V105H351.926C351.129 105 350.443 104.833 349.869 104.499C349.301 104.165 348.949 103.696 348.814 103.093C348.68 103.702 348.331 104.174 347.769 104.508C347.212 104.836 346.529 105 345.721 105C345.633 105 345.565 104.941 345.519 104.824C345.472 104.701 345.448 104.49 345.448 104.191C345.448 103.887 345.472 103.676 345.519 103.559C345.565 103.441 345.633 103.383 345.721 103.383C346.4 103.383 346.901 103.292 347.224 103.11C347.552 102.923 347.766 102.647 347.865 102.284C347.965 101.915 348.015 101.464 348.015 100.931V92.9062H349.632V100.843ZM356.452 100.729C356.452 101.32 356.508 101.815 356.619 102.214C356.73 102.606 356.947 102.899 357.27 103.093C357.598 103.286 358.081 103.383 358.72 103.383H359.326V105H358.693C357.949 105 357.296 104.836 356.733 104.508C356.171 104.18 355.805 103.714 355.635 103.11C355.518 103.515 355.298 103.857 354.976 104.139C354.653 104.42 354.267 104.634 353.815 104.78C353.364 104.927 352.884 105 352.374 105H351.943C351.844 105 351.773 104.941 351.732 104.824C351.691 104.707 351.671 104.496 351.671 104.191C351.671 103.881 351.691 103.67 351.732 103.559C351.773 103.441 351.844 103.383 351.943 103.383H352.374C353.065 103.383 353.587 103.286 353.938 103.093C354.29 102.894 354.527 102.598 354.65 102.205C354.773 101.812 354.835 101.32 354.835 100.729V99.4189H356.452V100.729ZM353.411 96.1846L354.729 94.8662L356.039 96.1846L354.729 97.4941L353.411 96.1846ZM365.426 103.383C365.924 103.389 366.305 103.245 366.568 102.952C366.838 102.653 367.002 102.173 367.061 101.511L367.201 99.7793L368.651 99.8936L368.537 101.458C368.484 102.12 368.593 102.606 368.862 102.917C369.132 103.228 369.536 103.383 370.075 103.383C371.042 103.383 371.525 102.8 371.525 101.634C371.525 101.44 371.514 101.2 371.49 100.913C371.467 100.626 371.435 100.327 371.394 100.017C371.353 99.7002 371.306 99.4043 371.253 99.1289L372.817 98.751C372.876 99.0264 372.929 99.334 372.976 99.6738C373.022 100.014 373.058 100.354 373.081 100.693C373.11 101.033 373.125 101.341 373.125 101.616C373.125 102.741 372.891 103.588 372.422 104.156C371.953 104.719 371.25 105 370.312 105C369.645 105 369.097 104.859 368.669 104.578C368.247 104.291 367.963 103.884 367.816 103.356C367.471 104.452 366.659 105 365.382 105C364.702 105 364.157 104.845 363.747 104.534C363.337 104.218 363.067 103.761 362.938 103.163C362.739 103.714 362.35 104.159 361.77 104.499C361.195 104.833 360.527 105 359.766 105H359.326C359.232 105 359.165 104.936 359.124 104.807C359.077 104.672 359.054 104.461 359.054 104.174C359.054 103.893 359.077 103.69 359.124 103.567C359.165 103.444 359.232 103.383 359.326 103.383H359.766C360.586 103.383 361.198 103.187 361.603 102.794C362.007 102.401 362.253 101.748 362.341 100.834L362.481 99.3486L364.107 99.4805L363.932 101.3C363.867 101.968 363.961 102.48 364.213 102.838C364.465 103.189 364.869 103.371 365.426 103.383ZM376.456 99.7002L378.003 99.1904L378.504 100.957C378.68 101.596 378.876 102.091 379.093 102.442C379.31 102.794 379.591 103.04 379.937 103.181C380.282 103.315 380.736 103.383 381.299 103.383H381.308V105H381.299C380.736 105 380.235 104.909 379.796 104.728C379.362 104.546 379.028 104.288 378.794 103.954C378.812 104.956 378.639 105.829 378.275 106.573C377.918 107.323 377.35 107.985 376.57 108.56C375.797 109.134 374.792 109.655 373.556 110.124L372.87 108.656C373.937 108.258 374.795 107.839 375.445 107.399C376.096 106.966 376.567 106.474 376.86 105.923C377.153 105.372 377.3 104.728 377.3 103.989C377.3 103.456 377.229 102.838 377.089 102.135C376.948 101.426 376.737 100.614 376.456 99.7002ZM380.341 108.129L381.659 106.811L382.969 108.129L381.659 109.438L380.341 108.129ZM383.408 108.129L384.727 106.811L386.036 108.129L384.727 109.438L383.408 108.129ZM381.888 110.862L383.206 109.544L384.516 110.862L383.206 112.172L381.888 110.862ZM385.729 97.8721C385.887 98.5225 386.016 99.1406 386.115 99.7266C386.215 100.312 386.265 100.857 386.265 101.361C386.265 102.1 386.127 102.741 385.852 103.286C385.582 103.831 385.131 104.253 384.498 104.552C383.871 104.851 383.021 105 381.949 105H381.316C381.217 105 381.146 104.941 381.105 104.824C381.064 104.707 381.044 104.496 381.044 104.191C381.044 103.881 381.064 103.67 381.105 103.559C381.146 103.441 381.217 103.383 381.316 103.383H381.949C382.652 103.383 383.203 103.301 383.602 103.137C384 102.973 384.281 102.732 384.445 102.416C384.609 102.1 384.691 101.713 384.691 101.256C384.691 100.863 384.645 100.421 384.551 99.9287C384.463 99.4307 384.349 98.8828 384.208 98.2852L385.729 97.8721Z" fill="white"/>
<path d="M100.76 209.5H74.4799C72.5799 209.5 70.8199 208.62 69.6799 207.08C68.5199 205.52 68.1799 203.56 68.7599 201.7L77.1799 174.64C77.9399 172.12 80.2599 170.4 82.8999 170.4H107.5C109.92 170.4 112.1 171.84 113.02 174.08C113.52 175.24 113.62 176.56 113.32 177.86L106.58 204.92C105.94 207.62 103.54 209.5 100.76 209.5ZM82.9199 173.42C81.6199 173.42 80.4399 174.28 80.0599 175.54L71.6399 202.6C71.3599 203.54 71.5199 204.52 72.1199 205.32C72.6799 206.08 73.5599 206.52 74.4999 206.52H100.78C102.16 206.52 103.36 205.58 103.68 204.24L110.42 177.16C110.58 176.5 110.54 175.84 110.28 175.26C109.8 174.12 108.74 173.4 107.52 173.4H82.9199V173.42Z" fill="white"/>
<path d="M109.56 209.5H100C99.18 209.5 98.5 208.82 98.5 208C98.5 207.18 99.18 206.5 100 206.5H109.56C110.38 206.5 111.14 206.16 111.7 205.56C112.26 204.96 112.54 204.16 112.48 203.34L110.5 176.1C110.44 175.28 111.06 174.56 111.88 174.5C112.7 174.46 113.42 175.06 113.48 175.88L115.46 203.12C115.58 204.76 115 206.4 113.88 207.6C112.78 208.82 111.2 209.5 109.56 209.5Z" fill="white"/>
<path d="M87.3595 178.26C87.2395 178.26 87.1195 178.24 86.9995 178.22C86.1995 178.02 85.6996 177.22 85.8996 176.4L87.9795 167.76C88.1795 166.96 88.9795 166.46 89.7995 166.66C90.5995 166.86 91.0996 167.66 90.8996 168.48L88.8196 177.12C88.6596 177.8 88.0395 178.26 87.3595 178.26Z" fill="white"/>
<path d="M100.76 178.28C100.66 178.28 100.54 178.28 100.44 178.24C99.6399 178.06 99.1199 177.26 99.2799 176.46L101.16 167.78C101.34 166.96 102.14 166.46 102.94 166.62C103.74 166.78 104.26 167.6 104.1 168.4L102.22 177.08C102.08 177.8 101.46 178.28 100.76 178.28Z" fill="white"/>
<path d="M99.4004 189.5H83.4004C82.5804 189.5 81.9004 188.82 81.9004 188C81.9004 187.18 82.5804 186.5 83.4004 186.5H99.4004C100.22 186.5 100.9 187.18 100.9 188C100.9 188.82 100.22 189.5 99.4004 189.5Z" fill="white"/>
<path d="M97.4004 197.5H81.4004C80.5804 197.5 79.9004 196.82 79.9004 196C79.9004 195.18 80.5804 194.5 81.4004 194.5H97.4004C98.2204 194.5 98.9004 195.18 98.9004 196C98.9004 196.82 98.2204 197.5 97.4004 197.5Z" fill="white"/>
<path d="M56.9844 239.701L56.0439 240.888C55.7861 240.612 55.4639 240.375 55.0771 240.176C54.6963 239.971 54.248 239.868 53.7324 239.868C53.3047 239.868 52.8945 239.974 52.502 240.185C52.1152 240.39 51.7988 240.68 51.5527 241.055C51.3066 241.43 51.1836 241.872 51.1836 242.382C51.1836 242.886 51.3301 243.293 51.623 243.604C51.916 243.908 52.335 244.131 52.8799 244.271C53.4248 244.412 54.0723 244.482 54.8223 244.482C55.1035 244.482 55.3994 244.474 55.71 244.456C56.0264 244.433 56.334 244.406 56.6328 244.377C56.9316 244.342 57.1982 244.31 57.4326 244.28L57.5293 245.88C56.5801 245.933 55.6748 246.076 54.8135 246.311C53.958 246.539 53.1963 246.855 52.5283 247.26C51.8604 247.664 51.333 248.159 50.9463 248.745C50.5596 249.331 50.3662 250.008 50.3662 250.775C50.3662 251.309 50.4863 251.766 50.7266 252.146C50.9727 252.533 51.3096 252.85 51.7373 253.096C52.1709 253.342 52.666 253.523 53.2227 253.641C53.7852 253.758 54.3828 253.816 55.0156 253.816C55.6836 253.816 56.3574 253.755 57.0371 253.632C57.7227 253.515 58.3203 253.351 58.8301 253.14L59.375 254.678C58.7715 254.936 58.083 255.138 57.3096 255.284C56.5361 255.431 55.7539 255.504 54.9629 255.504C54.0957 255.504 53.2842 255.41 52.5283 255.223C51.7783 255.041 51.1191 254.76 50.5508 254.379C49.9824 254.004 49.54 253.529 49.2236 252.955C48.9072 252.381 48.749 251.701 48.749 250.916C48.749 250.172 48.9102 249.46 49.2324 248.78C49.5547 248.101 50.0059 247.491 50.5859 246.952C51.1719 246.407 51.8574 245.965 52.6426 245.625C52.0508 245.52 51.5205 245.341 51.0518 245.089C50.5889 244.831 50.2227 244.494 49.9531 244.078C49.6895 243.662 49.5576 243.158 49.5576 242.566C49.5576 241.945 49.6689 241.374 49.8916 240.853C50.1143 240.325 50.4189 239.868 50.8057 239.481C51.1924 239.095 51.6318 238.796 52.124 238.585C52.6162 238.368 53.1348 238.26 53.6797 238.26C54.3711 238.26 54.998 238.397 55.5605 238.673C56.123 238.948 56.5977 239.291 56.9844 239.701ZM65.624 247.365C65.5947 246.932 65.542 246.495 65.4658 246.056C65.3896 245.616 65.2754 245.212 65.123 244.843C64.9766 244.474 64.7832 244.178 64.543 243.955C64.3086 243.727 64.0156 243.612 63.6641 243.612C63.2891 243.612 62.9785 243.732 62.7324 243.973C62.4863 244.213 62.3047 244.521 62.1875 244.896C62.0703 245.271 62.0117 245.663 62.0117 246.073C62.0117 246.565 62.1582 246.908 62.4512 247.102C62.75 247.289 63.1777 247.383 63.7344 247.383C64.0449 247.383 64.3613 247.383 64.6836 247.383C65.0059 247.377 65.3193 247.371 65.624 247.365ZM65.4482 249C65.126 249 64.8066 249 64.4902 249C64.1797 249 63.8691 249 63.5586 249C62.6387 249 61.9092 248.774 61.3701 248.323C60.8311 247.866 60.5615 247.157 60.5615 246.196C60.5615 245.704 60.623 245.212 60.7461 244.72C60.875 244.228 61.0684 243.779 61.3262 243.375C61.584 242.971 61.9092 242.648 62.3018 242.408C62.6943 242.162 63.1572 242.039 63.6904 242.039C64.3115 242.039 64.833 242.194 65.2549 242.505C65.6826 242.815 66.0254 243.231 66.2832 243.753C66.541 244.274 66.7344 244.852 66.8633 245.484C66.9922 246.111 67.0713 246.744 67.1006 247.383H67.9971V249H67.0479C66.8955 250.213 66.2861 251.232 65.2197 252.059C64.1533 252.891 62.7061 253.564 60.8779 254.08L60.2275 252.595C61.7334 252.19 62.9346 251.687 63.8311 251.083C64.7334 250.479 65.2725 249.785 65.4482 249ZM72.5059 244.729C72.5059 245.32 72.5615 245.815 72.6729 246.214C72.7842 246.606 73.001 246.899 73.3232 247.093C73.6514 247.286 74.1348 247.383 74.7734 247.383H75.3799V249H74.7471C74.0029 249 73.3496 248.836 72.7871 248.508C72.2246 248.18 71.8584 247.714 71.6885 247.11C71.5713 247.515 71.3516 247.857 71.0293 248.139C70.707 248.42 70.3203 248.634 69.8691 248.78C69.418 248.927 68.9375 249 68.4277 249H67.9971C67.8975 249 67.8271 248.941 67.7861 248.824C67.7451 248.707 67.7246 248.496 67.7246 248.191C67.7246 247.881 67.7451 247.67 67.7861 247.559C67.8271 247.441 67.8975 247.383 67.9971 247.383H68.4277C69.1191 247.383 69.6406 247.286 69.9922 247.093C70.3438 246.894 70.5811 246.598 70.7041 246.205C70.8271 245.812 70.8887 245.32 70.8887 244.729V243.419H72.5059V244.729ZM69.4648 240.185L70.7832 238.866L72.0928 240.185L70.7832 241.494L69.4648 240.185ZM79.8887 244.729C79.8887 245.32 79.9443 245.815 80.0557 246.214C80.167 246.606 80.3838 246.899 80.7061 247.093C81.0342 247.286 81.5176 247.383 82.1562 247.383H82.7627V249H82.1299C81.3857 249 80.7324 248.836 80.1699 248.508C79.6074 248.18 79.2412 247.714 79.0713 247.11C78.9541 247.515 78.7344 247.857 78.4121 248.139C78.0898 248.42 77.7031 248.634 77.252 248.78C76.8008 248.927 76.3203 249 75.8105 249H75.3799C75.2803 249 75.21 248.941 75.1689 248.824C75.1279 248.707 75.1074 248.496 75.1074 248.191C75.1074 247.881 75.1279 247.67 75.1689 247.559C75.21 247.441 75.2803 247.383 75.3799 247.383H75.8105C76.502 247.383 77.0234 247.286 77.375 247.093C77.7266 246.894 77.9639 246.598 78.0869 246.205C78.21 245.812 78.2715 245.32 78.2715 244.729V243.419H79.8887V244.729ZM78.4297 240.185L79.748 238.866L81.0576 240.185L79.748 241.494L78.4297 240.185ZM75.3623 240.185L76.6807 238.866L77.9902 240.185L76.6807 241.494L75.3623 240.185ZM82.7627 247.383C83.2725 247.383 83.6914 247.26 84.0195 247.014C84.3535 246.768 84.6377 246.451 84.8721 246.064C85.1064 245.672 85.3291 245.262 85.54 244.834C85.7686 244.359 86.0117 243.914 86.2695 243.498C86.5332 243.076 86.8525 242.733 87.2275 242.47C87.6025 242.2 88.0801 242.065 88.6602 242.065C89.293 242.065 89.8467 242.256 90.3213 242.637C90.7959 243.012 91.165 243.495 91.4287 244.087C91.6924 244.673 91.8242 245.285 91.8242 245.924C91.8242 246.879 91.5547 247.646 91.0156 248.227C90.4824 248.801 89.7529 249.088 88.8271 249.088C88.2002 249.088 87.6084 248.944 87.0518 248.657C86.501 248.364 86.0205 247.969 85.6104 247.471C85.2939 247.916 84.9102 248.282 84.459 248.569C84.0137 248.856 83.4482 249 82.7627 249C82.6631 249 82.5928 248.941 82.5518 248.824C82.5107 248.707 82.4902 248.496 82.4902 248.191C82.4902 247.881 82.5107 247.67 82.5518 247.559C82.5928 247.441 82.6631 247.383 82.7627 247.383ZM86.4277 246.205C86.7969 246.621 87.1807 246.938 87.5791 247.154C87.9775 247.371 88.3965 247.479 88.8359 247.479C89.2695 247.479 89.6328 247.342 89.9258 247.066C90.2188 246.791 90.3652 246.41 90.3652 245.924C90.3652 245.549 90.2861 245.191 90.1279 244.852C89.9756 244.506 89.7676 244.222 89.5039 243.999C89.2461 243.776 88.9561 243.665 88.6338 243.665C88.335 243.665 88.0713 243.744 87.8428 243.902C87.6201 244.055 87.418 244.277 87.2363 244.57C87.0547 244.857 86.876 245.206 86.7002 245.616L86.4277 246.205ZM108.629 242.338L108.146 243.797C107.899 243.715 107.627 243.65 107.328 243.604C107.035 243.551 106.754 243.524 106.484 243.524C105.922 243.524 105.415 243.633 104.964 243.85C104.519 244.061 104.167 244.359 103.909 244.746C103.651 245.127 103.522 245.572 103.522 246.082C103.522 246.574 103.701 246.917 104.059 247.11C104.416 247.298 105.046 247.43 105.948 247.506C106.44 247.541 106.877 247.6 107.258 247.682C107.639 247.764 107.961 247.89 108.225 248.06C108.494 248.224 108.696 248.446 108.831 248.728C108.972 249.009 109.042 249.369 109.042 249.809C109.042 250.488 108.887 251.08 108.576 251.584C108.266 252.094 107.832 252.516 107.275 252.85C106.719 253.184 106.068 253.433 105.324 253.597C104.58 253.761 103.774 253.843 102.907 253.843C101.05 253.843 99.667 253.436 98.7588 252.621C97.8564 251.812 97.4053 250.526 97.4053 248.763C97.4053 248.235 97.4346 247.699 97.4932 247.154C97.5576 246.604 97.6514 246.026 97.7744 245.423L99.2949 245.713C99.1895 246.299 99.1045 246.844 99.04 247.348C98.9814 247.846 98.9521 248.341 98.9521 248.833C98.9521 249.671 99.0898 250.339 99.3652 250.837C99.6406 251.335 100.068 251.692 100.648 251.909C101.234 252.126 101.99 252.234 102.916 252.234C103.508 252.234 104.076 252.188 104.621 252.094C105.172 252 105.661 251.862 106.089 251.681C106.522 251.499 106.865 251.276 107.117 251.013C107.369 250.755 107.495 250.459 107.495 250.125C107.495 249.785 107.363 249.542 107.1 249.396C106.842 249.255 106.35 249.152 105.623 249.088C104.773 249.018 104.076 248.889 103.531 248.701C102.992 248.508 102.594 248.221 102.336 247.84C102.084 247.453 101.958 246.94 101.958 246.302C101.958 245.476 102.143 244.731 102.512 244.069C102.881 243.407 103.396 242.886 104.059 242.505C104.727 242.118 105.5 241.925 106.379 241.925C106.754 241.925 107.138 241.963 107.53 242.039C107.923 242.109 108.289 242.209 108.629 242.338ZM116.161 247.365C116.132 246.932 116.079 246.495 116.003 246.056C115.927 245.616 115.812 245.212 115.66 244.843C115.514 244.474 115.32 244.178 115.08 243.955C114.846 243.727 114.553 243.612 114.201 243.612C113.826 243.612 113.516 243.732 113.27 243.973C113.023 244.213 112.842 244.521 112.725 244.896C112.607 245.271 112.549 245.663 112.549 246.073C112.549 246.565 112.695 246.908 112.988 247.102C113.287 247.289 113.715 247.383 114.271 247.383C114.582 247.383 114.898 247.383 115.221 247.383C115.543 247.377 115.856 247.371 116.161 247.365ZM115.985 249C115.663 249 115.344 249 115.027 249C114.717 249 114.406 249 114.096 249C113.176 249 112.446 248.774 111.907 248.323C111.368 247.866 111.099 247.157 111.099 246.196C111.099 245.704 111.16 245.212 111.283 244.72C111.412 244.228 111.605 243.779 111.863 243.375C112.121 242.971 112.446 242.648 112.839 242.408C113.231 242.162 113.694 242.039 114.228 242.039C114.849 242.039 115.37 242.194 115.792 242.505C116.22 242.815 116.562 243.231 116.82 243.753C117.078 244.274 117.271 244.852 117.4 245.484C117.529 246.111 117.608 246.744 117.638 247.383H118.534V249H117.585C117.433 250.213 116.823 251.232 115.757 252.059C114.69 252.891 113.243 253.564 111.415 254.08L110.765 252.595C112.271 252.19 113.472 251.687 114.368 251.083C115.271 250.479 115.81 249.785 115.985 249ZM123.043 244.729C123.043 245.32 123.099 245.815 123.21 246.214C123.321 246.606 123.538 246.899 123.86 247.093C124.188 247.286 124.672 247.383 125.311 247.383H125.917V249H125.284C124.54 249 123.887 248.836 123.324 248.508C122.762 248.18 122.396 247.714 122.226 247.11C122.108 247.515 121.889 247.857 121.566 248.139C121.244 248.42 120.857 248.634 120.406 248.78C119.955 248.927 119.475 249 118.965 249H118.534C118.435 249 118.364 248.941 118.323 248.824C118.282 248.707 118.262 248.496 118.262 248.191C118.262 247.881 118.282 247.67 118.323 247.559C118.364 247.441 118.435 247.383 118.534 247.383H118.965C119.656 247.383 120.178 247.286 120.529 247.093C120.881 246.894 121.118 246.598 121.241 246.205C121.364 245.812 121.426 245.32 121.426 244.729V243.419H123.043V244.729ZM120.002 240.185L121.32 238.866L122.63 240.185L121.32 241.494L120.002 240.185ZM125.917 247.383C126.427 247.383 126.846 247.26 127.174 247.014C127.508 246.768 127.792 246.451 128.026 246.064C128.261 245.672 128.483 245.262 128.694 244.834C128.923 244.359 129.166 243.914 129.424 243.498C129.688 243.076 130.007 242.733 130.382 242.47C130.757 242.2 131.234 242.065 131.814 242.065C132.447 242.065 133.001 242.256 133.476 242.637C133.95 243.012 134.319 243.495 134.583 244.087C134.847 244.673 134.979 245.285 134.979 245.924C134.979 246.879 134.709 247.646 134.17 248.227C133.637 248.801 132.907 249.088 131.981 249.088C131.354 249.088 130.763 248.944 130.206 248.657C129.655 248.364 129.175 247.969 128.765 247.471C128.448 247.916 128.064 248.282 127.613 248.569C127.168 248.856 126.603 249 125.917 249C125.817 249 125.747 248.941 125.706 248.824C125.665 248.707 125.645 248.496 125.645 248.191C125.645 247.881 125.665 247.67 125.706 247.559C125.747 247.441 125.817 247.383 125.917 247.383ZM129.582 246.205C129.951 246.621 130.335 246.938 130.733 247.154C131.132 247.371 131.551 247.479 131.99 247.479C132.424 247.479 132.787 247.342 133.08 247.066C133.373 246.791 133.52 246.41 133.52 245.924C133.52 245.549 133.44 245.191 133.282 244.852C133.13 244.506 132.922 244.222 132.658 243.999C132.4 243.776 132.11 243.665 131.788 243.665C131.489 243.665 131.226 243.744 130.997 243.902C130.774 244.055 130.572 244.277 130.391 244.57C130.209 244.857 130.03 245.206 129.854 245.616L129.582 246.205Z" fill="white"/>
<g filter="url(#filter1_b_1953_46789)">
<path d="M311.2 215.12H288.8C285.16 215.12 281.84 212.32 281.24 208.72L278.58 192.8C278.16 190.32 279.36 187.14 281.34 185.56L295.2 174.46C297.88 172.3 302.1 172.32 304.8 174.48L318.66 185.56C320.62 187.14 321.82 190.32 321.42 192.8L318.76 208.72C318.16 212.26 314.78 215.12 311.2 215.12ZM299.98 175.88C298.92 175.88 297.86 176.2 297.08 176.82L283.22 187.92C282.08 188.84 281.3 190.88 281.54 192.32L284.2 208.24C284.56 210.34 286.66 212.12 288.8 212.12H311.2C313.34 212.12 315.44 210.34 315.8 208.22L318.46 192.3C318.7 190.86 317.9 188.8 316.78 187.9L302.92 176.82C302.12 176.2 301.06 175.88 299.98 175.88Z" fill="white"/>
<path d="M304.24 200.26C303.86 200.26 303.5 200.12 303.2 199.84C301.26 197.98 298.74 197.98 296.78 199.84C296.18 200.42 295.24 200.4 294.66 199.8C294.08 199.2 294.1 198.26 294.7 197.68C297.8 194.7 302.14 194.7 305.26 197.68C305.86 198.26 305.88 199.2 305.3 199.8C305.04 200.1 304.64 200.26 304.24 200.26Z" fill="white"/>
<path d="M308.48 196.02C308.1 196.02 307.72 195.88 307.44 195.6C306.5 194.68 305.44 193.94 304.32 193.4C301.52 192.06 298.46 192.06 295.68 193.4C294.56 193.94 293.52 194.68 292.56 195.6C291.98 196.18 291.02 196.18 290.44 195.58C289.86 194.98 289.88 194.04 290.46 193.46C291.64 192.3 292.96 191.38 294.38 190.7C298 188.96 302 188.96 305.6 190.7C307.02 191.38 308.34 192.3 309.52 193.46C310.12 194.04 310.12 194.98 309.54 195.58C309.26 195.86 308.88 196.02 308.48 196.02Z" fill="white"/>
<path d="M300 205C299.48 205 298.98 204.8 298.58 204.42C297.8 203.64 297.8 202.38 298.58 201.6C299.36 200.82 300.64 200.82 301.42 201.6C302.2 202.38 302.2 203.64 301.42 204.42C301.02 204.8 300.52 205 300 205Z" fill="white"/>
<path d="M226.049 237.691C225.697 237.691 225.398 237.794 225.152 237.999C224.906 238.198 224.701 238.459 224.537 238.781C224.373 239.104 224.235 239.452 224.124 239.827C224.019 240.196 223.931 240.551 223.86 240.891C223.989 240.92 224.13 240.955 224.282 240.996C224.435 241.031 224.572 241.066 224.695 241.102C225.082 241.207 225.442 241.295 225.776 241.365C226.116 241.436 226.427 241.471 226.708 241.471C227.101 241.471 227.379 241.356 227.543 241.128C227.707 240.899 227.789 240.557 227.789 240.1C227.789 239.701 227.73 239.32 227.613 238.957C227.502 238.588 227.32 238.286 227.068 238.052C226.816 237.812 226.477 237.691 226.049 237.691ZM226.084 236.109C226.787 236.109 227.373 236.291 227.842 236.654C228.316 237.012 228.671 237.498 228.905 238.113C229.146 238.729 229.266 239.423 229.266 240.196C229.266 241.104 229.058 241.816 228.642 242.332C228.231 242.842 227.631 243.097 226.84 243.097C226.459 243.097 226.037 243.053 225.574 242.965C225.111 242.877 224.613 242.766 224.08 242.631C223.705 242.531 223.374 242.452 223.087 242.394C222.8 242.335 222.554 242.306 222.349 242.306C221.997 242.306 221.745 242.405 221.593 242.604C221.446 242.804 221.373 243.12 221.373 243.554V249.662H219.747V243.404C219.747 242.795 219.85 242.271 220.055 241.831C220.266 241.392 220.57 241.063 220.969 240.847C221.367 240.63 221.851 240.554 222.419 240.618C222.524 240.038 222.674 239.479 222.867 238.939C223.061 238.4 223.304 237.92 223.597 237.498C223.896 237.07 224.25 236.733 224.66 236.487C225.07 236.235 225.545 236.109 226.084 236.109ZM233.353 243H231.735V230.906H233.353V243ZM237.316 237.7L238.863 237.19C239.168 238.216 239.396 239.112 239.549 239.88C239.701 240.647 239.777 241.354 239.777 241.998C239.777 242.947 239.593 243.794 239.224 244.538C238.86 245.282 238.286 245.947 237.501 246.533C236.716 247.119 235.688 247.649 234.416 248.124L233.73 246.656C234.803 246.258 235.661 245.839 236.306 245.399C236.956 244.966 237.428 244.474 237.721 243.923C238.014 243.378 238.16 242.742 238.16 242.016C238.16 241.477 238.09 240.855 237.949 240.152C237.814 239.443 237.604 238.626 237.316 237.7ZM245.728 227.18L246.457 227.549C246.176 228.129 245.871 228.545 245.543 228.797C245.221 229.049 244.84 229.175 244.4 229.175C244.113 229.175 243.835 229.131 243.565 229.043C243.296 228.949 243.044 228.847 242.81 228.735C242.61 228.642 242.42 228.562 242.238 228.498C242.057 228.434 241.881 228.401 241.711 228.401C241.4 228.401 241.137 228.524 240.92 228.771C240.709 229.011 240.507 229.28 240.313 229.579L239.637 229.166C239.953 228.568 240.296 228.132 240.665 227.856C241.034 227.575 241.409 227.435 241.79 227.435C242.019 227.435 242.247 227.476 242.476 227.558C242.704 227.634 242.93 227.722 243.152 227.821C243.381 227.921 243.604 228.012 243.82 228.094C244.043 228.17 244.263 228.208 244.479 228.208C244.72 228.208 244.937 228.135 245.13 227.988C245.329 227.836 245.528 227.566 245.728 227.18ZM243.847 230.906V243H242.229V230.906H243.847ZM254.921 242.859C254.646 242.912 254.353 242.959 254.042 243C253.731 243.047 253.4 243.07 253.049 243.07C252.129 243.07 251.399 242.842 250.86 242.385C250.321 241.928 250.052 241.222 250.052 240.267C250.052 239.774 250.113 239.279 250.236 238.781C250.365 238.283 250.559 237.829 250.816 237.419C251.074 237.009 251.399 236.681 251.792 236.435C252.185 236.183 252.647 236.057 253.181 236.057C253.86 236.057 254.423 236.238 254.868 236.602C255.313 236.965 255.665 237.445 255.923 238.043C256.181 238.641 256.362 239.306 256.468 240.038C256.573 240.765 256.626 241.491 256.626 242.218C256.626 243.659 256.087 244.854 255.009 245.804C253.931 246.753 252.384 247.515 250.368 248.089L249.718 246.604C251.271 246.188 252.492 245.666 253.383 245.039C254.273 244.412 254.786 243.686 254.921 242.859ZM255.097 241.216C255.067 240.788 255.012 240.363 254.93 239.941C254.848 239.52 254.73 239.133 254.578 238.781C254.432 238.43 254.241 238.148 254.007 237.938C253.778 237.727 253.494 237.621 253.154 237.621C252.773 237.621 252.46 237.747 252.214 237.999C251.974 238.245 251.795 238.562 251.678 238.948C251.561 239.335 251.502 239.733 251.502 240.144C251.502 240.636 251.648 240.976 251.941 241.163C252.24 241.351 252.668 241.444 253.225 241.444C253.582 241.444 253.919 241.421 254.235 241.374C254.558 241.327 254.845 241.274 255.097 241.216ZM266.461 239.634L267.779 238.315L269.089 239.634L267.779 240.943L266.461 239.634ZM262.62 237.674L264.114 238.14C263.938 238.813 263.783 239.49 263.648 240.17C263.52 240.844 263.455 241.474 263.455 242.06C263.455 242.897 263.607 243.604 263.912 244.178C264.217 244.752 264.688 245.183 265.327 245.47C265.972 245.763 266.795 245.909 267.797 245.909C268.811 245.909 269.637 245.763 270.275 245.47C270.92 245.177 271.395 244.749 271.699 244.187C272.01 243.63 272.165 242.953 272.165 242.156C272.165 241.564 272.068 240.908 271.875 240.188C271.688 239.461 271.438 238.688 271.128 237.867L272.657 237.155L273.343 239.001C273.519 239.517 273.721 239.953 273.949 240.311C274.184 240.662 274.491 240.929 274.872 241.11C275.259 241.292 275.774 241.383 276.419 241.383H276.428V243H276.419C275.827 243 275.279 242.892 274.775 242.675C274.271 242.458 273.891 242.145 273.633 241.734C273.715 242.672 273.636 243.501 273.396 244.222C273.161 244.948 272.786 245.555 272.271 246.041C271.755 246.533 271.116 246.905 270.354 247.157C269.599 247.409 268.74 247.535 267.779 247.535C265.799 247.535 264.316 247.075 263.332 246.155C262.354 245.235 261.864 243.914 261.864 242.191C261.864 241.529 261.929 240.817 262.058 240.056C262.192 239.288 262.38 238.494 262.62 237.674ZM278.247 246.138L279.565 244.819L280.875 246.138L279.565 247.447L278.247 246.138ZM275.18 246.138L276.498 244.819L277.808 246.138L276.498 247.447L275.18 246.138ZM281.578 237.419V238.729C281.578 239.332 281.643 239.83 281.771 240.223C281.9 240.615 282.167 240.908 282.571 241.102C282.981 241.289 283.603 241.383 284.435 241.383H284.452V243H284.435C283.479 243 282.671 242.836 282.009 242.508C281.347 242.174 280.931 241.708 280.761 241.11C280.585 241.714 280.172 242.18 279.521 242.508C278.871 242.836 278.054 243 277.069 243H276.437C276.337 243 276.267 242.941 276.226 242.824C276.185 242.707 276.164 242.496 276.164 242.191C276.164 241.881 276.185 241.67 276.226 241.559C276.267 241.441 276.337 241.383 276.437 241.383H277.069C277.901 241.383 278.522 241.286 278.933 241.093C279.349 240.899 279.624 240.606 279.759 240.214C279.894 239.821 279.961 239.326 279.961 238.729V237.419H281.578ZM289.989 234.422L291.308 233.104L292.617 234.422L291.308 235.731L289.989 234.422ZM293.057 234.422L294.375 233.104L295.685 234.422L294.375 235.731L293.057 234.422ZM291.527 231.688L292.846 230.37L294.155 231.688L292.846 232.998L291.527 231.688ZM295.157 241.383C295.661 241.383 296.027 241.242 296.256 240.961C296.49 240.674 296.607 240.24 296.607 239.66C296.607 239.391 296.581 239.06 296.528 238.667C296.481 238.269 296.408 237.806 296.309 237.278L297.882 236.953L298.11 238.518C298.216 239.25 298.377 239.824 298.594 240.24C298.816 240.656 299.121 240.952 299.508 241.128C299.9 241.298 300.407 241.383 301.028 241.383H301.046V243H301.028C300.114 243 299.37 242.824 298.796 242.473C298.228 242.115 297.873 241.614 297.732 240.97C297.645 241.638 297.393 242.145 296.977 242.49C296.561 242.83 296.016 243 295.342 243C294.703 243 294.179 242.856 293.769 242.569C293.364 242.282 293.089 241.878 292.942 241.356C292.597 242.452 291.788 243 290.517 243C289.837 243 289.289 242.845 288.873 242.534C288.463 242.218 288.193 241.761 288.064 241.163C287.865 241.714 287.476 242.159 286.896 242.499C286.321 242.833 285.653 243 284.892 243H284.452C284.358 243 284.291 242.936 284.25 242.807C284.203 242.672 284.18 242.461 284.18 242.174C284.18 241.893 284.203 241.69 284.25 241.567C284.291 241.444 284.358 241.383 284.452 241.383H284.892C285.712 241.383 286.324 241.187 286.729 240.794C287.133 240.401 287.379 239.748 287.467 238.834L287.607 237.349L289.233 237.48L289.058 239.3C288.993 239.968 289.087 240.48 289.339 240.838C289.591 241.189 289.995 241.371 290.552 241.383C291.05 241.389 291.431 241.245 291.694 240.952C291.958 240.653 292.119 240.173 292.178 239.511L292.327 237.779L293.777 237.894L293.663 239.458C293.61 240.12 293.716 240.606 293.979 240.917C294.249 241.228 294.642 241.383 295.157 241.383ZM305.555 238.729C305.555 239.32 305.61 239.815 305.722 240.214C305.833 240.606 306.05 240.899 306.372 241.093C306.7 241.286 307.184 241.383 307.822 241.383H308.429V243H307.796C307.052 243 306.398 242.836 305.836 242.508C305.273 242.18 304.907 241.714 304.737 241.11C304.62 241.515 304.4 241.857 304.078 242.139C303.756 242.42 303.369 242.634 302.918 242.78C302.467 242.927 301.986 243 301.477 243H301.046C300.946 243 300.876 242.941 300.835 242.824C300.794 242.707 300.773 242.496 300.773 242.191C300.773 241.881 300.794 241.67 300.835 241.559C300.876 241.441 300.946 241.383 301.046 241.383H301.477C302.168 241.383 302.689 241.286 303.041 241.093C303.393 240.894 303.63 240.598 303.753 240.205C303.876 239.812 303.938 239.32 303.938 238.729V237.419H305.555V238.729ZM302.514 234.185L303.832 232.866L305.142 234.185L303.832 235.494L302.514 234.185ZM308.429 241.383C309.067 241.383 309.551 241.304 309.879 241.146C310.207 240.981 310.43 240.727 310.547 240.381C310.664 240.035 310.723 239.584 310.723 239.027V230.906H312.34V239.027C312.34 240.328 312.023 241.315 311.391 241.989C310.764 242.663 309.776 243 308.429 243C308.341 243 308.273 242.941 308.227 242.824C308.18 242.701 308.156 242.49 308.156 242.191C308.156 241.887 308.18 241.676 308.227 241.559C308.273 241.441 308.341 241.383 308.429 241.383ZM321.797 239.687C321.797 240.313 321.662 240.844 321.393 241.277C321.129 241.711 320.771 242.06 320.32 242.323C319.875 242.587 319.377 242.777 318.826 242.895C318.281 243.012 317.728 243.07 317.165 243.07C316.708 243.07 316.251 243.041 315.794 242.982C315.343 242.918 314.909 242.827 314.493 242.71L314.862 241.172C315.19 241.26 315.551 241.33 315.943 241.383C316.336 241.436 316.731 241.462 317.13 241.462C317.722 241.462 318.249 241.397 318.712 241.269C319.175 241.14 319.538 240.938 319.802 240.662C320.071 240.387 320.206 240.029 320.206 239.59C320.206 239.027 319.957 238.38 319.459 237.647C318.961 236.909 318.217 236.101 317.227 235.222L318.281 233.974C318.996 234.606 319.617 235.236 320.145 235.863C320.672 236.49 321.079 237.12 321.366 237.753C321.653 238.386 321.797 239.03 321.797 239.687ZM338.848 241.383V243H336.624C337.099 243.188 337.479 243.445 337.767 243.773C338.06 244.107 338.206 244.509 338.206 244.978C338.206 245.517 338.054 245.988 337.749 246.393C337.45 246.803 337.043 247.14 336.527 247.403C336.012 247.673 335.426 247.875 334.77 248.01C334.119 248.15 333.445 248.221 332.748 248.221C330.943 248.221 329.54 247.813 328.538 246.999C327.542 246.19 327.044 244.957 327.044 243.299C327.044 242.391 327.108 241.562 327.237 240.812C327.366 240.056 327.533 239.291 327.738 238.518L329.241 238.922C329.054 239.672 328.901 240.378 328.784 241.04C328.673 241.702 328.617 242.411 328.617 243.167C328.617 244.397 328.969 245.276 329.672 245.804C330.381 246.337 331.421 246.604 332.792 246.604C333.267 246.604 333.735 246.568 334.198 246.498C334.667 246.428 335.092 246.316 335.473 246.164C335.859 246.018 336.167 245.821 336.396 245.575C336.624 245.329 336.738 245.027 336.738 244.67C336.738 244.301 336.586 244.017 336.281 243.817C335.977 243.618 335.517 243.46 334.901 243.343C334.292 243.231 333.524 243.117 332.599 243L332.827 241.383H338.848ZM338.883 243C338.783 243 338.713 242.941 338.672 242.824C338.631 242.707 338.61 242.496 338.61 242.191C338.61 241.881 338.631 241.67 338.672 241.559C338.713 241.441 338.783 241.383 338.883 241.383H340.184C340.26 241.26 340.333 241.143 340.403 241.031C340.479 240.92 340.553 240.809 340.623 240.697V230.906H342.24V236.927C342.24 237.325 342.229 237.712 342.205 238.087C342.188 238.456 342.149 238.828 342.091 239.203C342.835 238.195 343.597 237.437 344.376 236.927C345.161 236.411 345.946 236.153 346.731 236.153C347.405 236.153 347.982 236.3 348.463 236.593C348.943 236.886 349.312 237.278 349.57 237.771C349.828 238.263 349.957 238.813 349.957 239.423C349.957 239.687 349.928 239.933 349.869 240.161C349.811 240.39 349.729 240.601 349.623 240.794C349.846 240.981 350.112 241.128 350.423 241.233C350.733 241.333 351.103 241.383 351.53 241.383H351.539V243H351.53C350.874 243 350.338 242.897 349.922 242.692C349.512 242.487 349.157 242.224 348.858 241.901C348.354 242.323 347.707 242.613 346.916 242.771C346.131 242.924 345.281 243 344.367 243H338.883ZM342.073 241.383H344.675C345.144 241.383 345.589 241.356 346.011 241.304C346.433 241.251 346.808 241.157 347.136 241.022C347.47 240.888 347.73 240.694 347.918 240.442C348.105 240.19 348.199 239.862 348.199 239.458C348.199 238.954 348.044 238.544 347.733 238.228C347.429 237.905 347.01 237.744 346.477 237.744C346.113 237.744 345.706 237.853 345.255 238.069C344.804 238.286 344.312 238.658 343.778 239.186C343.251 239.707 342.683 240.439 342.073 241.383ZM356.057 238.729C356.057 239.32 356.112 239.815 356.224 240.214C356.335 240.606 356.552 240.899 356.874 241.093C357.202 241.286 357.686 241.383 358.324 241.383H358.931V243H358.298C357.554 243 356.9 242.836 356.338 242.508C355.775 242.18 355.409 241.714 355.239 241.11C355.122 241.515 354.902 241.857 354.58 242.139C354.258 242.42 353.871 242.634 353.42 242.78C352.969 242.927 352.488 243 351.979 243H351.548C351.448 243 351.378 242.941 351.337 242.824C351.296 242.707 351.275 242.496 351.275 242.191C351.275 241.881 351.296 241.67 351.337 241.559C351.378 241.441 351.448 241.383 351.548 241.383H351.979C352.67 241.383 353.191 241.286 353.543 241.093C353.895 240.894 354.132 240.598 354.255 240.205C354.378 239.812 354.439 239.32 354.439 238.729V237.419H356.057V238.729ZM352.646 246.138L353.965 244.819L355.274 246.138L353.965 247.447L352.646 246.138ZM349.579 246.138L350.897 244.819L352.207 246.138L350.897 247.447L349.579 246.138ZM363.062 235.477C363.472 235.477 363.899 235.562 364.345 235.731C364.796 235.901 365.282 236.106 365.804 236.347C366.343 236.587 366.926 236.833 367.553 237.085C368.18 237.331 368.874 237.527 369.636 237.674V239.089L367.957 240.205C368.279 240.65 368.616 240.958 368.968 241.128C369.319 241.298 369.8 241.383 370.409 241.383H370.919V243H370.374C369.589 243 368.909 242.845 368.335 242.534C367.761 242.224 367.271 241.688 366.867 240.926L366.006 241.515C365.232 242.024 364.43 242.399 363.598 242.64C362.771 242.88 361.872 243 360.899 243H358.931C358.831 243 358.761 242.941 358.72 242.824C358.679 242.701 358.658 242.49 358.658 242.191C358.658 241.887 358.679 241.676 358.72 241.559C358.761 241.441 358.831 241.383 358.931 241.383H361.154C361.682 241.383 362.177 241.345 362.64 241.269C363.103 241.187 363.548 241.063 363.976 240.899C364.409 240.729 364.84 240.51 365.268 240.24L367.755 238.641C367.187 238.529 366.674 238.383 366.217 238.201C365.766 238.02 365.35 237.844 364.969 237.674C364.611 237.51 364.283 237.372 363.984 237.261C363.691 237.144 363.404 237.085 363.123 237.085C362.654 237.085 362.291 237.243 362.033 237.56C361.781 237.876 361.597 238.301 361.479 238.834L361.427 239.115L360.108 238.869L360.17 238.535C360.346 237.621 360.656 236.883 361.102 236.32C361.547 235.758 362.2 235.477 363.062 235.477ZM370.919 241.383C371.429 241.383 371.848 241.26 372.176 241.014C372.51 240.768 372.794 240.451 373.028 240.064C373.263 239.672 373.485 239.262 373.696 238.834C373.925 238.359 374.168 237.914 374.426 237.498C374.689 237.076 375.009 236.733 375.384 236.47C375.759 236.2 376.236 236.065 376.816 236.065C377.449 236.065 378.003 236.256 378.478 236.637C378.952 237.012 379.321 237.495 379.585 238.087C379.849 238.673 379.98 239.285 379.98 239.924C379.98 240.879 379.711 241.646 379.172 242.227C378.639 242.801 377.909 243.088 376.983 243.088C376.356 243.088 375.765 242.944 375.208 242.657C374.657 242.364 374.177 241.969 373.767 241.471C373.45 241.916 373.066 242.282 372.615 242.569C372.17 242.856 371.604 243 370.919 243C370.819 243 370.749 242.941 370.708 242.824C370.667 242.707 370.646 242.496 370.646 242.191C370.646 241.881 370.667 241.67 370.708 241.559C370.749 241.441 370.819 241.383 370.919 241.383ZM374.584 240.205C374.953 240.621 375.337 240.938 375.735 241.154C376.134 241.371 376.553 241.479 376.992 241.479C377.426 241.479 377.789 241.342 378.082 241.066C378.375 240.791 378.521 240.41 378.521 239.924C378.521 239.549 378.442 239.191 378.284 238.852C378.132 238.506 377.924 238.222 377.66 237.999C377.402 237.776 377.112 237.665 376.79 237.665C376.491 237.665 376.228 237.744 375.999 237.902C375.776 238.055 375.574 238.277 375.393 238.57C375.211 238.857 375.032 239.206 374.856 239.616L374.584 240.205Z" fill="white"/>
</g>
<defs>
<filter id="filter0_b_1953_46789" x="-50" y="-50" width="284" height="236" filterUnits="userSpaceOnUse" color-interpolation-filters="sRGB">
<feFlood flood-opacity="0" result="BackgroundImageFix"/>
<feGaussianBlur in="BackgroundImageFix" stdDeviation="25"/>
<feComposite in2="SourceAlpha" operator="in" result="effect1_backgroundBlur_1953_46789"/>
<feBlend mode="normal" in="SourceGraphic" in2="effect1_backgroundBlur_1953_46789" result="shape"/>
</filter>
<filter id="filter1_b_1953_46789" x="158" y="94" width="284" height="236" filterUnits="userSpaceOnUse" color-interpolation-filters="sRGB">
<feFlood flood-opacity="0" result="BackgroundImageFix"/>
<feGaussianBlur in="BackgroundImageFix" stdDeviation="25"/>
<feComposite in2="SourceAlpha" operator="in" result="effect1_backgroundBlur_1953_46789"/>
<feBlend mode="normal" in="SourceGraphic" in2="effect1_backgroundBlur_1953_46789" result="shape"/>
</filter>
</defs>
</svg>
